Coordinates
version=1
nRows=32
nColumns=22
inDegrees=yes

Units are S.I. units (second, meters, Newtons, ...)
If the header above contains a line with 'inDegrees', this indicates whether rotational values are in degrees (yes) or radians (no).

endheader
time	pelvis_tilt	pelvis_list	pelvis_rotation	pelvis_tx	pelvis_ty	pelvis_tz	hip_flexion_r	hip_adduction_r	hip_rotation_r	knee_angle_r	ankle_angle_r	subtalar_angle_r	hip_flexion_l	hip_adduction_l	hip_rotation_l	knee_angle_l	ankle_angle_l	subtalar_angle_l	lumbar_extension	lumbar_bending	lumbar_rotation
      0.91000000	      2.96284991	     -9.00287595	     30.81975546	     -0.36645067	      0.91857799	      0.42909249	     18.19883385	      8.54361803	     -3.14162850	    -23.69909155	      7.53663288	      2.68039568	     13.46205760	     -6.66053144	      5.12384407	    -68.35954558	    -22.25332075	     -2.31992239	     -8.43186283	      7.19126048	     -8.23410857
      0.92000000	      3.23436508	     -8.84029025	     31.29941811	     -0.35898951	      0.91974930	      0.42478864	     17.20348713	      8.56268975	     -3.30573733	    -23.58343760	      8.03754397	      2.40175030	     15.07247997	     -6.50756754	      5.18060831	    -69.88436366	    -20.81135973	     -2.18023383	     -8.84696225	      7.16946720	     -7.74515701
      0.93000000	      3.51772529	     -8.65023692	     31.77185657	     -0.35156128	      0.92093754	      0.42042405	     16.15812657	      8.55717460	     -3.49559114	    -23.42697859	      8.54844840	      2.16588081	     16.60217958	     -6.31312951	      5.22880638	    -71.12015782	    -19.07286787	     -2.21321318	     -9.27009653	      7.13175593	     -7.23958895
      0.94000000	      3.82176555	     -8.43759927	     32.23522518	     -0.34414053	      0.92215911	      0.41599776	     15.04345583	      8.53911118	     -3.71389645	    -23.20395138	      9.02660439	      2.01593686	     18.03163075	     -6.09916442	      5.25868678	    -72.05463148	    -17.12951265	     -2.46184240	     -9.70362752	      7.08628882	     -6.70961687
      0.95000000	      4.14407476	     -8.20737942	     32.67489075	     -0.33669958	      0.92340004	      0.41154948	     13.86281367	      8.52292091	     -3.92798938	    -22.91260615	      9.49187765	      1.95623983	     19.35789429	     -5.89421183	      5.24188077	    -72.68623722	    -15.07991373	     -2.92890211	    -10.14232595	      7.03192258	     -6.14582982
      0.96000000	      4.46286352	     -7.97284691	     33.08343511	     -0.32928885	      0.92459812	      0.40708433	     12.66840663	      8.50486434	     -4.15357069	    -22.59247866	      9.89880463	      1.96712583	     20.60740522	     -5.68924153	      5.19705206	    -73.02554087	    -12.98453115	     -3.41707084	    -10.56439092	      6.97375209	     -5.52716105
      0.97000000	      4.78234774	     -7.72850668	     33.45004849	     -0.32183886	      0.92577501	      0.40260602	     11.41817664	      8.49892535	     -4.31974848	    -22.18800863	     10.31491591	      1.99600500	     21.75925664	     -5.51311419	      5.08387516	    -73.06400470	    -10.90617642	     -4.05548094	    -10.96894786	      6.90361181	     -4.87484237
      0.98000000	      5.08173500	     -7.48628265	     33.77219027	     -0.31438497	      0.92686774	      0.39813421	     10.17344688	      8.49513883	     -4.47598999	    -21.75979663	     10.69906949	      2.02414245	     22.83992079	     -5.36632419	      4.90878778	    -72.81228663	     -8.87141108	     -4.63521608	    -11.33569127	      6.81739903	     -4.17406389
      0.99000000	      5.36064513	     -7.24077756	     34.04645968	     -0.30693895	      0.92787447	      0.39366137	      8.93089135	      8.48965883	     -4.59264723	    -21.30969896	     11.06609398	      2.03558609	     23.84186692	     -5.24657345	      4.66941463	    -72.27576707	     -6.92116418	     -5.14558506	    -11.67308041	      6.71216600	     -3.42717256
      1.00000000	      5.59943394	     -6.99250615	     34.27884607	     -0.29954295	      0.92877214	      0.38917869	      7.71080107	      8.46945086	     -4.66029309	    -20.83706914	     11.43209820	      2.02669685	     24.78041178	     -5.13103984	      4.38407005	    -71.45488823	     -5.09442033	     -5.57918162	    -11.97083218	      6.57844199	     -2.65240565
      1.01000000	      5.80484241	     -6.73647467	     34.46986089	     -0.29217647	      0.92956419	      0.38466282	      6.51018642	      8.42813155	     -4.69789153	    -20.35861480	     11.79263202	      1.99836246	     25.64146268	     -5.03235471	      4.03432991	    -70.35750755	     -3.42082453	     -5.90938071	    -12.23550297	      6.41547784	     -1.85359898
      1.02000000	      5.95866684	     -6.47691721	     34.63178733	     -0.28486457	      0.93022877	      0.38009334	      5.34693280	      8.35376425	     -4.71249443	    -19.87063910	     12.15953764	      1.95829733	     26.43987888	     -4.92827552	      3.64897045	    -68.98245801	     -1.92538655	     -6.12616449	    -12.45312596	      6.21967493	     -1.05629142
      1.03000000	      6.06336118	     -6.21853156	     34.77076370	     -0.27761604	      0.93074716	      0.37545776	      4.23489054	      8.24571038	     -4.72765597	    -19.39615921	     12.53827226	      1.91736989	     27.18014242	     -4.82791532	      3.22582505	    -67.34712112	     -0.62922028	     -6.20011054	    -12.62493102	      5.99659194	     -0.26485506
      1.04000000	      6.12635311	     -5.94889919	     34.90262252	     -0.27043304	      0.93115771	      0.37071805	      3.14072625	      8.09808929	     -4.73584564	    -18.90022631	     12.91712547	      1.86754680	     27.83682230	     -4.71020178	      2.78716420	    -65.44317085	      0.46107354	     -6.16856457	    -12.76649360	      5.74303486	      0.47526984
      1.05000000	      6.14497557	     -5.68970666	     35.03586730	     -0.26331586	      0.93140821	      0.36586593	      2.09901224	      7.92370082	     -4.76954442	    -18.41923483	     13.30589447	      1.82063344	     28.43088957	     -4.59319274	      2.34185193	    -63.28977000	      1.36189569	     -5.99880621	    -12.85735482	      5.47688330	      1.17613588
      1.06000000	      6.13522448	     -5.43638684	     35.17741873	     -0.25625368	      0.93152250	      0.36088989	      1.07901352	      7.72951403	     -4.83342003	    -17.92790274	     13.69103271	      1.76792358	     28.94021339	     -4.47982137	      1.89731636	    -60.89270275	      2.08268689	     -5.69764761	    -12.91747725	      5.20365551	      1.80840753
      1.07000000	      6.10107272	     -5.20772699	     35.33602178	     -0.24924920	      0.93146994	      0.35577821	      0.09300548	      7.53525294	     -4.93672304	    -17.43377053	     14.06926074	      1.71466675	     29.37636079	     -4.37889693	      1.47856845	    -58.26940393	      2.66252719	     -5.27683629	    -12.93488659	      4.94592501	      2.37400965
      1.08000000	      6.05117625	     -5.00547178	     35.51529028	     -0.24227984	      0.93124076	      0.35053335	     -0.86810916	      7.35079281	     -5.07528831	    -16.93663758	     14.44906513	      1.66940718	     29.73292805	     -4.29627880	      1.09299106	    -55.43572899	      3.13571950	     -4.77965675	    -12.91347050	      4.70679615	      2.87719645
      1.09000000	      5.98109914	     -4.84774612	     35.70727655	     -0.23531784	      0.93078463	      0.34517375	     -1.77349536	      7.18602121	     -5.28456646	    -16.46658737	     14.83662055	      1.64338833	     30.03046239	     -4.25459326	      0.72546347	    -52.41944249	      3.58556618	     -4.29299248	    -12.83548454	      4.49612740	      3.32181440
      1.10000000	      5.95317911	     -4.71273910	     35.96027562	     -0.22836811	      0.93023238	      0.33962004	     -2.76619896	      7.08264260	     -5.46047874	    -15.88573207	     15.15829395	      1.62376646	     30.20784059	     -4.24154038	      0.44564590	    -49.23262829	      3.84751247	     -3.67502058	    -12.76765890	      4.34706943	      3.64712185
      1.11000000	      5.89822362	     -4.62666459	     36.21682119	     -0.22138325	      0.92940341	      0.33397445	     -3.67257468	      6.99691317	     -5.72976505	    -15.37854228	     15.52232608	      1.63289072	     30.34417051	     -4.27982054	      0.15734602	    -45.91736746	      4.16837431	     -3.21818302	    -12.63056837	      4.21868350	      3.94199768
      1.12000000	      5.90205268	     -4.57763986	     36.52041060	     -0.21434173	      0.92845527	      0.32819322	     -4.66904070	      7.00240656	     -5.95213357	    -14.76803432	     15.81544701	      1.67140194	     30.37741315	     -4.39499407	     -0.09858033	    -42.51314498	      4.34223262	     -2.73838251	    -12.50778265	      4.16312956	      4.14087658
      1.13000000	      5.88875710	     -4.56556041	     36.83492968	     -0.20724364	      0.92724340	      0.32228838	     -5.60630607	      7.02537423	     -6.23825634	    -14.21394963	     16.14940098	      1.72172063	     30.37648509	     -4.56118655	     -0.42035990	    -39.06445940	      4.55262170	     -2.47931423	    -12.32644407	      4.12773978	      4.29842056
      1.14000000	      5.91627184	     -4.57982964	     37.15814548	     -0.20004189	      0.92587617	      0.31629791	     -6.58987841	      7.11088038	     -6.48467401	    -13.62397836	     16.44954203	      1.80038755	     30.30471160	     -4.81340072	     -0.84749924	    -35.63515129	      4.69674051	     -2.32506201	    -12.15021134	      4.13170173	      4.41278103
      1.15000000	      5.95086276	     -4.61820851	     37.46518068	     -0.19275232	      0.92430226	      0.31024137	     -7.56048098	      7.22482889	     -6.68843733	    -13.05682083	     16.75575215	      1.90491052	     30.20650449	     -5.13294688	     -1.45732008	    -32.29484041	      4.81858824	     -2.29191497	    -11.95129590	      4.15053097	      4.51366245
      1.16000000	      5.98480613	     -4.67244313	     37.72596416	     -0.18540775	      0.92252690	      0.30414661	     -8.49192449	      7.34277909	     -6.82859231	    -12.55479228	     17.07830733	      2.03042676	     30.10297630	     -5.50992252	     -2.32521012	    -29.12418854	      4.92722780	     -2.34501066	    -11.73864796	      4.17414005	      4.62821953
      1.17000000	      5.99990465	     -4.74190027	     37.92104197	     -0.17801927	      0.92054062	      0.29805542	     -9.35486900	      7.44531251	     -6.89092243	    -12.14145791	     17.42729784	      2.17223432	     30.03037751	     -5.92100515	     -3.46441887	    -26.20927881	      5.04121339	     -2.42963618	    -11.50011715	      4.18368189	      4.77590573
      1.18000000	      6.01868036	     -4.77623032	     38.05378927	     -0.17060877	      0.91845194	      0.29194363	    -10.20605971	      7.49962440	     -6.88389336	    -11.80783699	     17.78509121	      2.35083915	     29.94238168	     -6.31897324	     -4.84964484	    -23.61585306	      5.18707786	     -2.52606618	    -11.29885110	      4.15037335	      4.93940530
      1.19000000	      5.98361701	     -4.83280893	     38.08316108	     -0.16319498	      0.91615986	      0.28588079	    -10.91109289	      7.50048315	     -6.78391318	    -11.63989148	     18.19822220	      2.51536163	     29.95272713	     -6.71879913	     -6.43589846	    -21.43640574	      5.34507007	     -2.55135778	    -11.04643797	      4.08638212	      5.20247972
      1.20000000	      5.89434357	     -4.92210780	     38.03575230	     -0.15578182	      0.91367978	      0.27982562	    -11.45528915	      7.45864267	     -6.60747892	    -11.65271662	     18.62846716	      2.65773190	     30.09025966	     -7.11308910	     -8.10625192	    -19.74533342	      5.57099773	     -2.52082325	    -10.73011012	      4.00652996	      5.49993962
      1.21000000	      5.84081336	     -4.92141479	     37.96713118	     -0.14829641	      0.91132482	      0.27360506	    -12.09099585	      7.34714515	     -6.39832274	    -11.68001892	     19.02194886	      2.84823855	     30.16307486	     -7.44038202	     -9.74975609	    -18.52329017	      5.79519601	     -2.48022613	    -10.50473488	      3.86190474	      5.80792421
      1.22000000	      5.75017703	     -4.98504100	     37.87099315	     -0.14076041	      0.90883408	      0.26729973	    -12.56728877	      7.24077897	     -6.18498161	    -11.87924285	     19.39826618	      2.99085860	     30.40187384	     -7.79999868	    -11.28209353	    -17.88635427	      6.08977750	     -2.44485846	    -10.19325775	      3.74730135	      6.14080624
